<svg width="145" height="59" viewBox="0 0 145 59" fill="none" xmlns="http://www.w3.org/2000/svg">
<path d="M14.1879 0.0838959L28.3713 23.3093L0.443507 23.4545L14.1879 0.0838959Z" fill="#EE4817"/>
<path d="M26.1955 58.4484L0.172363 26.3447L52.018 26.2554L26.1955 58.4484Z" fill="url(#paint0_radial_312_109)"/>
<path d="M36.1872 0L49.6396 23.3929H22.8631L36.1872 0Z" fill="#4AD5F4"/>
<path d="M39.0034 4.21216L50.2052 23.167H27.9055L39.0034 4.21216Z" fill="#D05EBC"/>
<path d="M84.7544 32.5H66.7544C65.8755 32.5 65.0552 32.3359 64.2935 32.0078C63.5318 31.6797 62.8638 31.2344 62.2896 30.6719C61.7154 30.0977 61.2642 29.4297 60.9361 28.668C60.6079 27.8945 60.4439 27.0742 60.4439 26.207C60.4439 25.3281 60.6079 24.5078 60.9361 23.7461C61.2642 22.9844 61.7154 22.3164 62.2896 21.7422C62.8638 21.168 63.5318 20.7168 64.2935 20.3887C65.0552 20.0605 65.8755 19.8965 66.7544 19.8965H79.3404V23.5H66.7544C66.3794 23.5 66.0279 23.5762 65.6997 23.7285C65.3716 23.8691 65.0845 24.0625 64.8384 24.3086C64.5923 24.5547 64.399 24.8418 64.2583 25.1699C64.1177 25.498 64.0474 25.8438 64.0474 26.207C64.0474 26.582 64.1177 26.9336 64.2583 27.2617C64.399 27.5781 64.5923 27.8594 64.8384 28.1055C65.0845 28.3516 65.3716 28.5449 65.6997 28.6855C66.0279 28.8262 66.3794 28.8965 66.7544 28.8965H81.1509V19C81.1509 18.6367 81.0747 18.291 80.9224 17.9629C80.7818 17.6348 80.5884 17.3477 80.3423 17.1016C80.0962 16.8555 79.8091 16.6621 79.481 16.5215C79.1529 16.3691 78.8072 16.293 78.4439 16.293H64.0474V12.707H78.4439C79.3228 12.707 80.1431 12.8711 80.9048 13.1992C81.6665 13.5273 82.3345 13.9785 82.9087 14.5527C83.4829 15.1152 83.9341 15.7773 84.2622 16.5391C84.5904 17.3008 84.7544 18.1211 84.7544 19V32.5Z" fill="#EE4817"/>
<path d="M118.364 7.29297L105.11 32.5H100.997L87.7603 7.29297H91.856L103.053 28.6152L114.251 7.29297H118.364Z" fill="#EE4817"/>
<path d="M142.762 32.5H124.762C123.883 32.5 123.063 32.3359 122.301 32.0078C121.54 31.6797 120.872 31.2344 120.297 30.6719C119.723 30.0977 119.272 29.4297 118.944 28.668C118.616 27.8945 118.452 27.0742 118.452 26.207C118.452 25.3281 118.616 24.5078 118.944 23.7461C119.272 22.9844 119.723 22.3164 120.297 21.7422C120.872 21.168 121.54 20.7168 122.301 20.3887C123.063 20.0605 123.883 19.8965 124.762 19.8965H137.348V23.5H124.762C124.387 23.5 124.036 23.5762 123.708 23.7285C123.379 23.8691 123.092 24.0625 122.846 24.3086C122.6 24.5547 122.407 24.8418 122.266 25.1699C122.126 25.498 122.055 25.8438 122.055 26.207C122.055 26.582 122.126 26.9336 122.266 27.2617C122.407 27.5781 122.6 27.8594 122.846 28.1055C123.092 28.3516 123.379 28.5449 123.708 28.6855C124.036 28.8262 124.387 28.8965 124.762 28.8965H139.159V19C139.159 18.6367 139.083 18.291 138.93 17.9629C138.79 17.6348 138.596 17.3477 138.35 17.1016C138.104 16.8555 137.817 16.6621 137.489 16.5215C137.161 16.3691 136.815 16.293 136.452 16.293H122.055V12.707H136.452C137.331 12.707 138.151 12.8711 138.913 13.1992C139.674 13.5273 140.342 13.9785 140.917 14.5527C141.491 15.1152 141.942 15.7773 142.27 16.5391C142.598 17.3008 142.762 18.1211 142.762 19V32.5Z" fill="#EE4817"/>
<path d="M63.9195 52.6263L60.6555 44.6103H62.6235L64.8635 50.4343L67.0875 44.6103H68.9755L65.6795 52.6263H63.9195Z" fill="#EE4817"/>
<path d="M73.765 52.7863C72.997 52.7863 72.3037 52.6049 71.685 52.2423C71.0664 51.8689 70.5757 51.3729 70.213 50.7543C69.8504 50.1249 69.669 49.4156 69.669 48.6263C69.669 47.8369 69.8397 47.1329 70.181 46.5143C70.5223 45.8956 70.9864 45.4049 71.573 45.0423C72.1704 44.6689 72.8317 44.4823 73.557 44.4823C74.3037 44.4823 74.9597 44.6636 75.525 45.0263C76.101 45.3889 76.549 45.8796 76.869 46.4983C77.1997 47.1169 77.365 47.8263 77.365 48.6263V49.0583H71.445C71.509 49.4956 71.6477 49.8849 71.861 50.2263C72.085 50.5569 72.3677 50.8183 72.709 51.0103C73.061 51.2023 73.4397 51.2983 73.845 51.2983C74.2184 51.2983 74.5704 51.2343 74.901 51.1063C75.2423 50.9676 75.525 50.7809 75.749 50.5463L76.933 51.6183C76.4424 52.0236 75.941 52.3223 75.429 52.5143C74.9277 52.6956 74.373 52.7863 73.765 52.7863ZM71.461 47.9383H75.653C75.589 47.5543 75.4557 47.2129 75.253 46.9143C75.061 46.6156 74.8157 46.3809 74.517 46.2103C74.229 46.0396 73.909 45.9543 73.557 45.9543C73.205 45.9543 72.8797 46.0396 72.581 46.2103C72.293 46.3703 72.053 46.5996 71.861 46.8983C71.669 47.1969 71.5357 47.5436 71.461 47.9383Z" fill="#EE4817"/>
<path d="M79.2089 52.6263V44.6103H81.0169V46.3383C81.2516 45.7303 81.5556 45.2663 81.9289 44.9463C82.3022 44.6263 82.7342 44.4663 83.2249 44.4663C83.3742 44.4769 83.5076 44.4929 83.6249 44.5143C83.7422 44.5249 83.8702 44.5623 84.0089 44.6263V46.2103C83.8702 46.1463 83.7102 46.0983 83.5289 46.0663C83.3582 46.0343 83.1876 46.0183 83.0169 46.0183C82.5796 46.0183 82.1849 46.1356 81.8329 46.3703C81.4916 46.6049 81.2196 46.9303 81.0169 47.3463V52.6263H79.2089Z" fill="#EE4817"/>
<path d="M85.4741 52.6263V44.6103H87.2821V52.6263H85.4741ZM86.3861 42.9783C86.0768 42.9783 85.8101 42.8716 85.5861 42.6583C85.3728 42.4343 85.2661 42.1729 85.2661 41.8743C85.2661 41.5649 85.3728 41.3036 85.5861 41.0903C85.8101 40.8663 86.0768 40.7543 86.3861 40.7543C86.6955 40.7543 86.9568 40.8663 87.1701 41.0903C87.3941 41.3036 87.5061 41.5596 87.5061 41.8583C87.5061 42.1676 87.3941 42.4343 87.1701 42.6583C86.9568 42.8716 86.6955 42.9783 86.3861 42.9783Z" fill="#EE4817"/>
<path d="M90.6094 52.6263V46.0503H88.8814V44.6103H90.6094V43.2343C90.6094 42.3703 90.8441 41.7089 91.3134 41.2503C91.7934 40.7809 92.4814 40.5463 93.3774 40.5463C93.6014 40.5463 93.8201 40.5569 94.0334 40.5783C94.2467 40.5996 94.4281 40.6369 94.5774 40.6903V42.2263C94.3747 42.1836 94.2041 42.1569 94.0654 42.1463C93.9267 42.1249 93.7774 42.1143 93.6174 42.1143C93.2014 42.1143 92.8974 42.2049 92.7054 42.3863C92.5134 42.5676 92.4174 42.8609 92.4174 43.2663V44.6103H94.5774V46.0503H92.4174V52.6263H90.6094Z" fill="#EE4817"/>
<path d="M96.0835 52.6263V44.6103H97.8915V52.6263H96.0835ZM96.9955 42.9783C96.6862 42.9783 96.4195 42.8716 96.1955 42.6583C95.9822 42.4343 95.8755 42.1729 95.8755 41.8743C95.8755 41.5649 95.9822 41.3036 96.1955 41.0903C96.4195 40.8663 96.6862 40.7543 96.9955 40.7543C97.3049 40.7543 97.5662 40.8663 97.7795 41.0903C98.0035 41.3036 98.1155 41.5596 98.1155 41.8583C98.1155 42.1676 98.0035 42.4343 97.7795 42.6583C97.5662 42.8716 97.3049 42.9783 96.9955 42.9783Z" fill="#EE4817"/>
<path d="M103.811 52.7703C103.053 52.7703 102.365 52.5889 101.747 52.2263C101.139 51.8529 100.653 51.3516 100.291 50.7223C99.9388 50.0929 99.7628 49.3943 99.7628 48.6263C99.7628 47.8476 99.9388 47.1489 100.291 46.5303C100.653 45.9009 101.139 45.4049 101.747 45.0423C102.365 44.6689 103.053 44.4823 103.811 44.4823C104.429 44.4823 105.016 44.5996 105.571 44.8343C106.136 45.0689 106.616 45.4049 107.011 45.8423L105.891 47.0103C105.613 46.7009 105.304 46.4663 104.963 46.3063C104.621 46.1463 104.259 46.0663 103.875 46.0663C103.437 46.0663 103.043 46.1836 102.691 46.4183C102.349 46.6423 102.077 46.9463 101.875 47.3303C101.672 47.7143 101.571 48.1463 101.571 48.6263C101.571 49.1063 101.672 49.5436 101.875 49.9383C102.077 50.3223 102.349 50.6263 102.691 50.8503C103.043 51.0743 103.437 51.1863 103.875 51.1863C104.259 51.1863 104.621 51.1063 104.963 50.9463C105.304 50.7863 105.613 50.5569 105.891 50.2583L107.011 51.4103C106.616 51.8476 106.136 52.1836 105.571 52.4183C105.016 52.6529 104.429 52.7703 103.811 52.7703Z" fill="#EE4817"/>
<path d="M110.938 52.7703C110.383 52.7703 109.887 52.6689 109.45 52.4663C109.023 52.2529 108.687 51.9649 108.442 51.6023C108.207 51.2289 108.09 50.8023 108.09 50.3223C108.09 49.8423 108.212 49.4263 108.458 49.0743C108.714 48.7223 109.071 48.4503 109.53 48.2583C109.988 48.0663 110.532 47.9703 111.162 47.9703C111.535 47.9703 111.903 48.0129 112.266 48.0983C112.628 48.1729 112.98 48.3009 113.322 48.4823V47.5863C113.322 47.0529 113.167 46.6529 112.858 46.3863C112.559 46.1196 112.1 45.9863 111.482 45.9863C111.151 45.9863 110.794 46.0396 110.41 46.1463C110.036 46.2423 109.615 46.3969 109.146 46.6103L108.506 45.2983C109.679 44.7543 110.788 44.4823 111.834 44.4823C112.879 44.4823 113.684 44.7383 114.25 45.2503C114.826 45.7516 115.114 46.4663 115.114 47.3943V52.6263H113.322V51.7943C112.98 52.1249 112.612 52.3703 112.218 52.5303C111.823 52.6903 111.396 52.7703 110.938 52.7703ZM109.786 50.2903C109.786 50.6636 109.935 50.9569 110.234 51.1703C110.532 51.3836 110.932 51.4903 111.434 51.4903C111.796 51.4903 112.132 51.4369 112.442 51.3303C112.762 51.2129 113.055 51.0423 113.322 50.8183V49.5223C113.044 49.3943 112.756 49.2983 112.458 49.2343C112.159 49.1703 111.834 49.1383 111.482 49.1383C110.959 49.1383 110.543 49.2396 110.234 49.4423C109.935 49.6449 109.786 49.9276 109.786 50.2903Z" fill="#EE4817"/>
<path d="M120.524 52.7863C119.714 52.7863 119.1 52.5996 118.684 52.2263C118.268 51.8423 118.06 51.2823 118.06 50.5463V46.0503H116.46V44.6103H118.06V42.4023L119.868 42.0183V44.6103H122.092V46.0503H119.868V50.1463C119.868 50.5409 119.954 50.8236 120.124 50.9943C120.295 51.1543 120.583 51.2343 120.988 51.2343C121.17 51.2343 121.335 51.2236 121.484 51.2023C121.644 51.1703 121.842 51.1169 122.076 51.0423V52.5623C121.852 52.6369 121.596 52.6903 121.308 52.7223C121.031 52.7649 120.77 52.7863 120.524 52.7863Z" fill="#EE4817"/>
<path d="M123.677 52.6263V44.6103H125.485V52.6263H123.677ZM124.589 42.9783C124.28 42.9783 124.013 42.8716 123.789 42.6583C123.576 42.4343 123.469 42.1729 123.469 41.8743C123.469 41.5649 123.576 41.3036 123.789 41.0903C124.013 40.8663 124.28 40.7543 124.589 40.7543C124.899 40.7543 125.16 40.8663 125.373 41.0903C125.597 41.3036 125.709 41.5596 125.709 41.8583C125.709 42.1676 125.597 42.4343 125.373 42.6583C125.16 42.8716 124.899 42.9783 124.589 42.9783Z" fill="#EE4817"/>
<path d="M131.389 52.7703C130.631 52.7703 129.943 52.5889 129.325 52.2263C128.717 51.8636 128.237 51.3729 127.885 50.7543C127.533 50.1249 127.357 49.4156 127.357 48.6263C127.357 47.8369 127.533 47.1329 127.885 46.5143C128.237 45.8849 128.717 45.3889 129.325 45.0263C129.933 44.6636 130.621 44.4823 131.389 44.4823C132.157 44.4823 132.839 44.6636 133.437 45.0263C134.045 45.3889 134.525 45.8849 134.877 46.5143C135.229 47.1329 135.405 47.8369 135.405 48.6263C135.405 49.4156 135.229 50.1249 134.877 50.7543C134.525 51.3729 134.045 51.8636 133.437 52.2263C132.839 52.5889 132.157 52.7703 131.389 52.7703ZM131.389 51.2343C131.826 51.2343 132.21 51.1223 132.541 50.8983C132.882 50.6743 133.149 50.3649 133.341 49.9703C133.533 49.5649 133.629 49.1169 133.629 48.6263C133.629 48.1249 133.533 47.6823 133.341 47.2983C133.149 46.9036 132.882 46.5943 132.541 46.3703C132.21 46.1356 131.826 46.0183 131.389 46.0183C130.951 46.0183 130.562 46.1356 130.221 46.3703C129.879 46.5943 129.613 46.9036 129.421 47.2983C129.229 47.6823 129.133 48.1249 129.133 48.6263C129.133 49.1276 129.229 49.5756 129.421 49.9703C129.613 50.3649 129.879 50.6743 130.221 50.8983C130.562 51.1223 130.951 51.2343 131.389 51.2343Z" fill="#EE4817"/>
<path d="M137.271 52.6263V44.6103H139.079V45.9223C139.389 45.4423 139.757 45.0849 140.183 44.8503C140.61 44.6049 141.085 44.4823 141.607 44.4823C142.162 44.4823 142.647 44.6049 143.063 44.8503C143.479 45.0849 143.805 45.4156 144.039 45.8423C144.285 46.2689 144.407 46.7703 144.407 47.3463V52.6263H142.583V47.8583C142.583 47.2716 142.423 46.8076 142.103 46.4663C141.783 46.1143 141.357 45.9383 140.823 45.9383C140.461 45.9383 140.13 46.0236 139.831 46.1943C139.543 46.3543 139.293 46.5943 139.079 46.9143V52.6263H137.271Z" fill="#EE4817"/>
<defs>
<radialGradient id="paint0_radial_312_109" cx="0" cy="0" r="1" gradientUnits="userSpaceOnUse" gradientTransform="translate(63.2087 -0.0849597) rotate(72.5241) scale(47.4999 109.279)">
<stop stop-color="#CD095B"/>
<stop offset="0.519986" stop-color="#EA3581"/>
</radialGradient>
</defs>
</svg>
