<svg width="184" height="79" viewBox="0 0 184 79" fill="none">
<path d="M24.1879 10.0839L38.3713 33.3093L10.4435 33.4545L24.1879 10.0839Z" fill="#EE4817"/>
<path d="M36.1955 68.4484L10.1724 36.3447L62.018 36.2554L36.1955 68.4484Z" fill="url(#paint0_radial_312_108)"/>
<path d="M46.1872 10L59.6396 33.3929H32.8631L46.1872 10Z" fill="#4AD5F4"/>
<path d="M49.0034 14.2122L60.2052 33.167H37.9055L49.0034 14.2122Z" fill="#D05EBC"/>
<path d="M94.7544 42.5H76.7544C75.8755 42.5 75.0552 42.3359 74.2935 42.0078C73.5318 41.6797 72.8638 41.2344 72.2896 40.6719C71.7154 40.0977 71.2642 39.4297 70.9361 38.668C70.6079 37.8945 70.4439 37.0742 70.4439 36.207C70.4439 35.3281 70.6079 34.5078 70.9361 33.7461C71.2642 32.9844 71.7154 32.3164 72.2896 31.7422C72.8638 31.168 73.5318 30.7168 74.2935 30.3887C75.0552 30.0605 75.8755 29.8965 76.7544 29.8965H89.3404V33.5H76.7544C76.3794 33.5 76.0279 33.5762 75.6997 33.7285C75.3716 33.8691 75.0845 34.0625 74.8384 34.3086C74.5923 34.5547 74.399 34.8418 74.2583 35.1699C74.1177 35.498 74.0474 35.8438 74.0474 36.207C74.0474 36.582 74.1177 36.9336 74.2583 37.2617C74.399 37.5781 74.5923 37.8594 74.8384 38.1055C75.0845 38.3516 75.3716 38.5449 75.6997 38.6855C76.0279 38.8262 76.3794 38.8965 76.7544 38.8965H91.1509V29C91.1509 28.6367 91.0747 28.291 90.9224 27.9629C90.7818 27.6348 90.5884 27.3477 90.3423 27.1016C90.0962 26.8555 89.8091 26.6621 89.481 26.5215C89.1529 26.3691 88.8072 26.293 88.4439 26.293H74.0474V22.707H88.4439C89.3228 22.707 90.1431 22.8711 90.9048 23.1992C91.6665 23.5273 92.3345 23.9785 92.9087 24.5527C93.4829 25.1152 93.9341 25.7773 94.2622 26.5391C94.5904 27.3008 94.7544 28.1211 94.7544 29V42.5Z" fill="#EE4817"/>
<path d="M128.364 17.293L115.11 42.5H110.997L97.7603 17.293H101.856L113.053 38.6152L124.251 17.293H128.364Z" fill="#EE4817"/>
<path d="M152.762 42.5H134.762C133.883 42.5 133.063 42.3359 132.301 42.0078C131.54 41.6797 130.872 41.2344 130.297 40.6719C129.723 40.0977 129.272 39.4297 128.944 38.668C128.616 37.8945 128.452 37.0742 128.452 36.207C128.452 35.3281 128.616 34.5078 128.944 33.7461C129.272 32.9844 129.723 32.3164 130.297 31.7422C130.872 31.168 131.54 30.7168 132.301 30.3887C133.063 30.0605 133.883 29.8965 134.762 29.8965H147.348V33.5H134.762C134.387 33.5 134.036 33.5762 133.708 33.7285C133.379 33.8691 133.092 34.0625 132.846 34.3086C132.6 34.5547 132.407 34.8418 132.266 35.1699C132.126 35.498 132.055 35.8438 132.055 36.207C132.055 36.582 132.126 36.9336 132.266 37.2617C132.407 37.5781 132.6 37.8594 132.846 38.1055C133.092 38.3516 133.379 38.5449 133.708 38.6855C134.036 38.8262 134.387 38.8965 134.762 38.8965H149.159V29C149.159 28.6367 149.083 28.291 148.93 27.9629C148.79 27.6348 148.596 27.3477 148.35 27.1016C148.104 26.8555 147.817 26.6621 147.489 26.5215C147.161 26.3691 146.815 26.293 146.452 26.293H132.055V22.707H146.452C147.331 22.707 148.151 22.8711 148.913 23.1992C149.674 23.5273 150.342 23.9785 150.917 24.5527C151.491 25.1152 151.942 25.7773 152.27 26.5391C152.598 27.3008 152.762 28.1211 152.762 29V42.5Z" fill="#EE4817"/>
<path d="M73.9195 62.6263L70.6555 54.6103H72.6235L74.8635 60.4343L77.0875 54.6103H78.9755L75.6795 62.6263H73.9195Z" fill="#EE4817"/>
<path d="M83.765 62.7863C82.997 62.7863 82.3037 62.6049 81.685 62.2423C81.0664 61.8689 80.5757 61.3729 80.213 60.7543C79.8504 60.1249 79.669 59.4156 79.669 58.6263C79.669 57.8369 79.8397 57.1329 80.181 56.5143C80.5223 55.8956 80.9864 55.4049 81.573 55.0423C82.1704 54.6689 82.8317 54.4823 83.557 54.4823C84.3037 54.4823 84.9597 54.6636 85.525 55.0263C86.101 55.3889 86.549 55.8796 86.869 56.4983C87.1997 57.1169 87.365 57.8263 87.365 58.6263V59.0583H81.445C81.509 59.4956 81.6477 59.8849 81.861 60.2263C82.085 60.5569 82.3677 60.8183 82.709 61.0103C83.061 61.2023 83.4397 61.2983 83.845 61.2983C84.2184 61.2983 84.5704 61.2343 84.901 61.1063C85.2423 60.9676 85.525 60.7809 85.749 60.5463L86.933 61.6183C86.4424 62.0236 85.941 62.3223 85.429 62.5143C84.9277 62.6956 84.373 62.7863 83.765 62.7863ZM81.461 57.9383H85.653C85.589 57.5543 85.4557 57.2129 85.253 56.9143C85.061 56.6156 84.8157 56.3809 84.517 56.2103C84.229 56.0396 83.909 55.9543 83.557 55.9543C83.205 55.9543 82.8797 56.0396 82.581 56.2103C82.293 56.3703 82.053 56.5996 81.861 56.8983C81.669 57.1969 81.5357 57.5436 81.461 57.9383Z" fill="#EE4817"/>
<path d="M89.2089 62.6263V54.6103H91.0169V56.3383C91.2516 55.7303 91.5556 55.2663 91.9289 54.9463C92.3022 54.6263 92.7342 54.4663 93.2249 54.4663C93.3742 54.4769 93.5076 54.4929 93.6249 54.5143C93.7422 54.5249 93.8702 54.5623 94.0089 54.6263V56.2103C93.8702 56.1463 93.7102 56.0983 93.5289 56.0663C93.3582 56.0343 93.1876 56.0183 93.0169 56.0183C92.5796 56.0183 92.1849 56.1356 91.8329 56.3703C91.4916 56.6049 91.2196 56.9303 91.0169 57.3463V62.6263H89.2089Z" fill="#EE4817"/>
<path d="M95.4741 62.6263V54.6103H97.2821V62.6263H95.4741ZM96.3861 52.9783C96.0768 52.9783 95.8101 52.8716 95.5861 52.6583C95.3728 52.4343 95.2661 52.1729 95.2661 51.8743C95.2661 51.5649 95.3728 51.3036 95.5861 51.0903C95.8101 50.8663 96.0768 50.7543 96.3861 50.7543C96.6955 50.7543 96.9568 50.8663 97.1701 51.0903C97.3941 51.3036 97.5061 51.5596 97.5061 51.8583C97.5061 52.1676 97.3941 52.4343 97.1701 52.6583C96.9568 52.8716 96.6955 52.9783 96.3861 52.9783Z" fill="#EE4817"/>
<path d="M100.609 62.6263V56.0503H98.8814V54.6103H100.609V53.2343C100.609 52.3703 100.844 51.7089 101.313 51.2503C101.793 50.7809 102.481 50.5463 103.377 50.5463C103.601 50.5463 103.82 50.5569 104.033 50.5783C104.247 50.5996 104.428 50.6369 104.577 50.6903V52.2263C104.375 52.1836 104.204 52.1569 104.065 52.1463C103.927 52.1249 103.777 52.1143 103.617 52.1143C103.201 52.1143 102.897 52.2049 102.705 52.3863C102.513 52.5676 102.417 52.8609 102.417 53.2663V54.6103H104.577V56.0503H102.417V62.6263H100.609Z" fill="#EE4817"/>
<path d="M106.084 62.6263V54.6103H107.892V62.6263H106.084ZM106.996 52.9783C106.686 52.9783 106.42 52.8716 106.196 52.6583C105.982 52.4343 105.876 52.1729 105.876 51.8743C105.876 51.5649 105.982 51.3036 106.196 51.0903C106.42 50.8663 106.686 50.7543 106.996 50.7543C107.305 50.7543 107.566 50.8663 107.78 51.0903C108.004 51.3036 108.116 51.5596 108.116 51.8583C108.116 52.1676 108.004 52.4343 107.78 52.6583C107.566 52.8716 107.305 52.9783 106.996 52.9783Z" fill="#EE4817"/>
<path d="M113.811 62.7703C113.053 62.7703 112.365 62.5889 111.747 62.2263C111.139 61.8529 110.653 61.3516 110.291 60.7223C109.939 60.0929 109.763 59.3943 109.763 58.6263C109.763 57.8476 109.939 57.1489 110.291 56.5303C110.653 55.9009 111.139 55.4049 111.747 55.0423C112.365 54.6689 113.053 54.4823 113.811 54.4823C114.429 54.4823 115.016 54.5996 115.571 54.8343C116.136 55.0689 116.616 55.4049 117.011 55.8423L115.891 57.0103C115.613 56.7009 115.304 56.4663 114.963 56.3063C114.621 56.1463 114.259 56.0663 113.875 56.0663C113.437 56.0663 113.043 56.1836 112.691 56.4183C112.349 56.6423 112.077 56.9463 111.875 57.3303C111.672 57.7143 111.571 58.1463 111.571 58.6263C111.571 59.1063 111.672 59.5436 111.875 59.9383C112.077 60.3223 112.349 60.6263 112.691 60.8503C113.043 61.0743 113.437 61.1863 113.875 61.1863C114.259 61.1863 114.621 61.1063 114.963 60.9463C115.304 60.7863 115.613 60.5569 115.891 60.2583L117.011 61.4103C116.616 61.8476 116.136 62.1836 115.571 62.4183C115.016 62.6529 114.429 62.7703 113.811 62.7703Z" fill="#EE4817"/>
<path d="M120.938 62.7703C120.383 62.7703 119.887 62.6689 119.45 62.4663C119.023 62.2529 118.687 61.9649 118.442 61.6023C118.207 61.2289 118.09 60.8023 118.09 60.3223C118.09 59.8423 118.212 59.4263 118.458 59.0743C118.714 58.7223 119.071 58.4503 119.53 58.2583C119.988 58.0663 120.532 57.9703 121.162 57.9703C121.535 57.9703 121.903 58.0129 122.266 58.0983C122.628 58.1729 122.98 58.3009 123.322 58.4823V57.5863C123.322 57.0529 123.167 56.6529 122.858 56.3863C122.559 56.1196 122.1 55.9863 121.482 55.9863C121.151 55.9863 120.794 56.0396 120.41 56.1463C120.036 56.2423 119.615 56.3969 119.146 56.6103L118.506 55.2983C119.679 54.7543 120.788 54.4823 121.834 54.4823C122.879 54.4823 123.684 54.7383 124.25 55.2503C124.826 55.7516 125.114 56.4663 125.114 57.3943V62.6263H123.322V61.7943C122.98 62.1249 122.612 62.3703 122.218 62.5303C121.823 62.6903 121.396 62.7703 120.938 62.7703ZM119.786 60.2903C119.786 60.6636 119.935 60.9569 120.234 61.1703C120.532 61.3836 120.932 61.4903 121.434 61.4903C121.796 61.4903 122.132 61.4369 122.442 61.3303C122.762 61.2129 123.055 61.0423 123.322 60.8183V59.5223C123.044 59.3943 122.756 59.2983 122.458 59.2343C122.159 59.1703 121.834 59.1383 121.482 59.1383C120.959 59.1383 120.543 59.2396 120.234 59.4423C119.935 59.6449 119.786 59.9276 119.786 60.2903Z" fill="#EE4817"/>
<path d="M130.524 62.7863C129.714 62.7863 129.1 62.5996 128.684 62.2263C128.268 61.8423 128.06 61.2823 128.06 60.5463V56.0503H126.46V54.6103H128.06V52.4023L129.868 52.0183V54.6103H132.092V56.0503H129.868V60.1463C129.868 60.5409 129.954 60.8236 130.124 60.9943C130.295 61.1543 130.583 61.2343 130.988 61.2343C131.17 61.2343 131.335 61.2236 131.484 61.2023C131.644 61.1703 131.842 61.1169 132.076 61.0423V62.5623C131.852 62.6369 131.596 62.6903 131.308 62.7223C131.031 62.7649 130.77 62.7863 130.524 62.7863Z" fill="#EE4817"/>
<path d="M133.677 62.6263V54.6103H135.485V62.6263H133.677ZM134.589 52.9783C134.28 52.9783 134.013 52.8716 133.789 52.6583C133.576 52.4343 133.469 52.1729 133.469 51.8743C133.469 51.5649 133.576 51.3036 133.789 51.0903C134.013 50.8663 134.28 50.7543 134.589 50.7543C134.899 50.7543 135.16 50.8663 135.373 51.0903C135.597 51.3036 135.709 51.5596 135.709 51.8583C135.709 52.1676 135.597 52.4343 135.373 52.6583C135.16 52.8716 134.899 52.9783 134.589 52.9783Z" fill="#EE4817"/>
<path d="M141.389 62.7703C140.631 62.7703 139.943 62.5889 139.325 62.2263C138.717 61.8636 138.237 61.3729 137.885 60.7543C137.533 60.1249 137.357 59.4156 137.357 58.6263C137.357 57.8369 137.533 57.1329 137.885 56.5143C138.237 55.8849 138.717 55.3889 139.325 55.0263C139.933 54.6636 140.621 54.4823 141.389 54.4823C142.157 54.4823 142.839 54.6636 143.437 55.0263C144.045 55.3889 144.525 55.8849 144.877 56.5143C145.229 57.1329 145.405 57.8369 145.405 58.6263C145.405 59.4156 145.229 60.1249 144.877 60.7543C144.525 61.3729 144.045 61.8636 143.437 62.2263C142.839 62.5889 142.157 62.7703 141.389 62.7703ZM141.389 61.2343C141.826 61.2343 142.21 61.1223 142.541 60.8983C142.882 60.6743 143.149 60.3649 143.341 59.9703C143.533 59.5649 143.629 59.1169 143.629 58.6263C143.629 58.1249 143.533 57.6823 143.341 57.2983C143.149 56.9036 142.882 56.5943 142.541 56.3703C142.21 56.1356 141.826 56.0183 141.389 56.0183C140.951 56.0183 140.562 56.1356 140.221 56.3703C139.879 56.5943 139.613 56.9036 139.421 57.2983C139.229 57.6823 139.133 58.1249 139.133 58.6263C139.133 59.1276 139.229 59.5756 139.421 59.9703C139.613 60.3649 139.879 60.6743 140.221 60.8983C140.562 61.1223 140.951 61.2343 141.389 61.2343Z" fill="#EE4817"/>
<path d="M147.271 62.6263V54.6103H149.079V55.9223C149.389 55.4423 149.757 55.0849 150.183 54.8503C150.61 54.6049 151.085 54.4823 151.607 54.4823C152.162 54.4823 152.647 54.6049 153.063 54.8503C153.479 55.0849 153.805 55.4156 154.039 55.8423C154.285 56.2689 154.407 56.7703 154.407 57.3463V62.6263H152.583V57.8583C152.583 57.2716 152.423 56.8076 152.103 56.4663C151.783 56.1143 151.357 55.9383 150.823 55.9383C150.461 55.9383 150.13 56.0236 149.831 56.1943C149.543 56.3543 149.293 56.5943 149.079 56.9143V62.6263H147.271Z" fill="#EE4817"/>
<defs>
<radialGradient id="paint0_radial_312_108" cx="0" cy="0" r="1" gradientUnits="userSpaceOnUse" gradientTransform="translate(73.2087 9.91504) rotate(72.5241) scale(47.4999 109.279)">
<stop stop-color="#CD095B"/>
<stop offset="0.519986" stop-color="#EA3581"/>
</radialGradient>
</defs>
</svg>
