<svg width="73" height="72" viewBox="0 0 73 72" fill="none" xmlns="http://www.w3.org/2000/svg">
<g filter="url(#filter0_bd_61_25)">
<path d="M66.1724 32C66.1724 48.5685 52.7409 62 36.1724 62C19.6038 62 6.17236 48.5685 6.17236 32C6.17236 15.4315 19.6038 2 36.1724 2C52.7409 2 66.1724 15.4315 66.1724 32Z" fill="url(#paint0_linear_61_25)" fill-opacity="0.2" shape-rendering="crispEdges"/>
<path d="M36.1724 63C53.2932 63 67.1724 49.1208 67.1724 32C67.1724 14.8792 53.2932 1 36.1724 1C19.0515 1 5.17236 14.8792 5.17236 32C5.17236 49.1208 19.0515 63 36.1724 63Z" stroke="#EE4817" stroke-width="2" shape-rendering="crispEdges"/>
</g>
<path d="M25.4249 42L25.4249 18.6738L33.1944 18.6738L33.1944 42L25.4249 42ZM34.4249 23.332L34.4249 18.6738L43.3018 18.6738L47.9776 23.332L47.9776 30.3281L44.3917 33.9141L44.1456 33.4219L36.8506 34.3887L37.1319 35.0039L34.4249 35.0039L34.4249 30.4863L40.2608 30.4863L40.2608 23.332L34.4249 23.332ZM48.7686 42L40.4717 42L37.1319 35.0039L43.3018 35.0039L44.3917 33.9141L48.7686 42Z" fill="#EE4817"/>
<path d="M25.4249 42L24.4249 42L24.4249 43L25.4249 43L25.4249 42ZM25.4249 18.6738L25.4249 17.6738L24.4249 17.6738L24.4249 18.6738L25.4249 18.6738ZM33.1944 18.6738L34.1944 18.6738L34.1944 17.6738L33.1944 17.6738L33.1944 18.6738ZM33.1944 42L33.1944 43L34.1944 43L34.1944 42L33.1944 42ZM34.4249 23.332L33.4249 23.332L33.4249 24.332L34.4249 24.332L34.4249 23.332ZM34.4249 18.6738L34.4249 17.6738L33.4249 17.6738L33.4249 18.6738L34.4249 18.6738ZM43.3018 18.6738L44.0076 17.9654L43.7149 17.6738L43.3018 17.6738L43.3018 18.6738ZM47.9776 23.332L48.9776 23.332L48.9776 22.9167L48.6834 22.6236L47.9776 23.332ZM47.9776 30.3281L48.6847 31.0352L48.9776 30.7423L48.9776 30.3281L47.9776 30.3281ZM44.3917 33.9141L43.4972 34.3613L44.1177 35.6022L45.0988 34.6212L44.3917 33.9141ZM44.1456 33.4219L45.04 32.9747L44.7211 32.3369L44.0142 32.4305L44.1456 33.4219ZM36.8506 34.3887L36.7193 33.3973L35.3791 33.5749L35.9412 34.8044L36.8506 34.3887ZM37.1319 35.0039L37.1319 36.0039L38.6886 36.0039L38.0414 34.5881L37.1319 35.0039ZM34.4249 35.0039L33.4249 35.0039L33.4249 36.0039L34.4249 36.0039L34.4249 35.0039ZM34.4249 30.4863L34.4249 29.4863L33.4249 29.4863L33.4249 30.4863L34.4249 30.4863ZM40.2608 30.4863L40.2608 31.4863L41.2608 31.4863L41.2608 30.4863L40.2608 30.4863ZM40.2608 23.332L41.2608 23.332L41.2608 22.332L40.2608 22.332L40.2608 23.332ZM48.7686 42L48.7686 43L50.447 43L49.648 41.524L48.7686 42ZM40.4717 42L39.5693 42.4308L39.841 43L40.4717 43L40.4717 42ZM37.1319 35.0039L37.1319 34.0039L35.5464 34.0039L36.2295 35.4347L37.1319 35.0039ZM43.3018 35.0039L43.3018 36.0039L43.716 36.0039L44.0089 35.711L43.3018 35.0039ZM44.3917 33.9141L45.2711 33.438L44.6327 32.2588L43.6846 33.207L44.3917 33.9141ZM26.4249 42L26.4249 18.6738L24.4249 18.6738L24.4249 42L26.4249 42ZM25.4249 19.6738L33.1944 19.6738L33.1944 17.6738L25.4249 17.6738L25.4249 19.6738ZM32.1944 18.6738L32.1944 42L34.1944 42L34.1944 18.6738L32.1944 18.6738ZM33.1944 41L25.4249 41L25.4249 43L33.1944 43L33.1944 41ZM35.4249 23.332L35.4249 18.6738L33.4249 18.6738L33.4249 23.332L35.4249 23.332ZM34.4249 19.6738L43.3018 19.6738L43.3018 17.6738L34.4249 17.6738L34.4249 19.6738ZM42.596 19.3823L47.2718 24.0405L48.6834 22.6236L44.0076 17.9654L42.596 19.3823ZM46.9776 23.332L46.9776 30.3281L48.9776 30.3281L48.9776 23.332L46.9776 23.332ZM47.2705 29.621L43.6846 33.207L45.0988 34.6212L48.6847 31.0352L47.2705 29.621ZM45.2861 33.4668L45.04 32.9747L43.2511 33.8691L43.4972 34.3613L45.2861 33.4668ZM44.0142 32.4305L36.7193 33.3973L36.982 35.38L44.277 34.4132L44.0142 32.4305ZM35.9412 34.8044L36.2224 35.4197L38.0414 34.5881L37.7601 33.9729L35.9412 34.8044ZM37.1319 34.0039L34.4249 34.0039L34.4249 36.0039L37.1319 36.0039L37.1319 34.0039ZM35.4249 35.0039L35.4249 30.4863L33.4249 30.4863L33.4249 35.0039L35.4249 35.0039ZM34.4249 31.4863L40.2608 31.4863L40.2608 29.4863L34.4249 29.4863L34.4249 31.4863ZM41.2608 30.4863L41.2608 23.332L39.2608 23.332L39.2608 30.4863L41.2608 30.4863ZM40.2608 22.332L34.4249 22.332L34.4249 24.332L40.2608 24.332L40.2608 22.332ZM48.7686 41L40.4717 41L40.4717 43L48.7686 43L48.7686 41ZM41.3742 41.5692L38.0343 34.5731L36.2295 35.4347L39.5693 42.4308L41.3742 41.5692ZM37.1319 36.0039L43.3018 36.0039L43.3018 34.0039L37.1319 34.0039L37.1319 36.0039ZM44.0089 35.711L45.0988 34.6212L43.6846 33.207L42.5947 34.2968L44.0089 35.711ZM43.5122 34.3901L47.8892 42.476L49.648 41.524L45.2711 33.438L43.5122 34.3901Z" fill="#EE4817"/>
<defs>
<filter id="filter0_bd_61_25" x="-15.8276" y="-20" width="104" height="104" filterUnits="userSpaceOnUse" color-interpolation-filters="sRGB">
<feFlood flood-opacity="0" result="BackgroundImageFix"/>
<feGaussianBlur in="BackgroundImageFix" stdDeviation="10"/>
<feComposite in2="SourceAlpha" operator="in" result="effect1_backgroundBlur_61_25"/>
<feColorMatrix in="SourceAlpha" type="matrix" values="0 0 0 0 0 0 0 0 0 0 0 0 0 0 0 0 0 0 127 0" result="hardAlpha"/>
<feOffset dy="4"/>
<feGaussianBlur stdDeviation="2"/>
<feComposite in2="hardAlpha" operator="out"/>
<feColorMatrix type="matrix" values="0 0 0 0 0 0 0 0 0 0 0 0 0 0 0 0 0 0 0.25 0"/>
<feBlend mode="normal" in2="effect1_backgroundBlur_61_25" result="effect2_dropShadow_61_25"/>
<feBlend mode="normal" in="SourceGraphic" in2="effect2_dropShadow_61_25" result="shape"/>
</filter>
<linearGradient id="paint0_linear_61_25" x1="58.4355" y1="11.6316" x2="15.4882" y2="51.7368" gradientUnits="userSpaceOnUse">
<stop stop-color="#0EFFF0" stop-opacity="0.81"/>
<stop offset="1" stop-color="white" stop-opacity="0"/>
</linearGradient>
</defs>
</svg>
