<svg width="1147" height="64" viewBox="0 0 1147 64" fill="none" xmlns="http://www.w3.org/2000/svg">
<path d="M201.116 0L177.321 27.1299H10.5946C10.6052 26.9771 10.6105 26.8226 10.6105 26.6667C10.6105 23.3939 8.2353 20.7407 5.30527 20.7407C2.37525 20.7407 0 23.3939 0 26.6667C0 29.9395 2.37525 32.5926 5.30527 32.5926C7.72317 32.5926 9.76328 30.7859 10.4026 28.3151H177.767L201.562 1.18519H232.425C258.572 43.6978 310.585 64.2917 360.875 63.9969C411.126 63.7022 459.925 42.5444 479.625 1.18519H506.115L516.931 14.1604H1136.39V12.9752H517.392L506.577 0H478.986L478.837 0.316424C459.502 41.318 411.079 62.5173 360.87 62.8117C310.674 63.106 258.964 42.4993 233.143 0.258436L232.985 0H201.116Z" fill="#EE4817"/>
<path d="M1141.69 20.7407C1144.62 20.7407 1147 18.0876 1147 14.8148C1147 11.542 1144.62 8.88889 1141.69 8.88889C1138.76 8.88889 1136.39 11.542 1136.39 14.8148C1136.39 18.0876 1138.76 20.7407 1141.69 20.7407Z" fill="#EE4817"/>
</svg>
