<svg xmlns="http://www.w3.org/2000/svg" xmlns:xlink="http://www.w3.org/1999/xlink" viewBox="0 0 100 125" version="1.1" x="0px" y="0px"><title>11</title><desc>Created with Sketch.</desc><g stroke="none" stroke-width="1" fill="none" fill-rule="evenodd"><g fill="#EE4817"><path d="M53.8754279,95.93194 C53.6272521,95.9526376 53.3790763,95.9711873 53.13051,95.9879798 C52.9959757,95.9969617 52.8616366,96.0049674 52.7267118,96.0127779 C52.5244222,96.0246888 52.3219373,96.0362091 52.1190619,96.0453864 C51.921068,96.0543684 51.7226836,96.060812 51.5242992,96.0670603 C51.3735582,96.0721371 51.2228173,96.0781902 51.0718812,96.0819001 C50.7149454,96.0899058 50.3578144,96.0947873 49.9999024,96.0947873 C49.6414045,96.0947873 49.2834925,96.0899058 48.9263615,96.0819001 C48.7754253,96.0781902 48.6246844,96.0721371 48.4739435,96.0670603 C48.2745828,96.0606167 48.0752221,96.0541731 47.8762519,96.0451911 C47.673767,96.0360139 47.4718679,96.0244935 47.2697735,96.0125826 C47.1334819,96.0045769 46.9967997,95.9965712 46.8607033,95.9875892 C46.6133085,95.9707968 46.3661091,95.9522471 46.1193001,95.9315494 C46.044906,95.9253011 45.9707071,95.9190528 45.8961176,95.9122186 C36.6624556,95.0934908 27.9196777,91.5227596 20.7411298,85.6167112 C24.5936146,83.3013106 28.9526045,81.1169299 32.8738209,79.1516316 C36.7962088,77.1861381 39.8944033,75.6334255 41.5925817,74.4007451 C43.2808018,73.1754846 44.2024302,71.7483247 44.3316925,70.1590984 C44.5650285,67.2874002 42.2511945,64.9516925 39.8012641,62.4787166 C38.5521843,61.2179187 37.260733,59.9143587 36.4336105,58.6338394 C33.9629826,54.810441 31.8836561,50.0216739 33.5552792,33.6383304 C34.1342258,27.9628849 36.9881497,23.9241139 42.037775,21.6339019 C45.98789,19.8423856 49.8679064,19.8048956 49.8981718,19.8047003 C49.9368333,19.8048956 53.8166545,19.8423856 57.7669647,21.6339019 C62.8163948,23.9241139 65.6703187,27.9628849 66.2494606,33.6383304 C67.9210836,50.0218692 65.8417572,54.8106362 63.3711292,58.6340347 C62.5440068,59.9143587 61.2523602,61.2179187 60.0034756,62.4787166 C57.5535452,64.9516925 55.239516,67.2874002 55.4730473,70.1590984 C55.6023095,71.7483247 56.5237427,73.1754846 58.2121581,74.4007451 C59.9101412,75.6332302 63.0083357,77.1859428 66.9307236,79.1516316 C70.7017849,81.0411688 75.2456862,83.3182983 79.1760798,85.6852477 C72.0092475,91.5534155 63.2902915,95.1005202 54.08709,95.9137807 C54.016601,95.9198338 53.9459168,95.9260821 53.8754279,95.93194 M3.90520505,50 C3.90520505,37.6876455 8.70001582,26.1122046 17.4060847,17.4061187 C26.1121536,8.7000328 37.6877671,3.90521268 49.9999024,3.90521268 C62.3122329,3.90521268 73.8876512,8.7000328 82.5939153,17.4061187 C91.2999842,26.1122046 96.0947949,37.6876455 96.0947949,50 C96.0947949,62.3121593 91.2999842,73.8877954 82.5939153,82.5938813 C82.4677772,82.7202149 82.3387101,82.8426434 82.2115957,82.9672196 C77.9195801,80.2919537 72.8402752,77.7447787 68.6804507,75.6601762 C65.0663787,73.8491338 61.9455341,72.2850961 60.5060755,71.2404518 C60.0081619,70.8790243 59.4059793,70.3432291 59.3653651,69.8425809 C59.2773028,68.7604464 61.2181897,66.8013965 62.7777333,65.2272053 C64.16701,63.8246481 65.6037349,62.3746427 66.6513062,60.7535889 C70.0917918,55.4290267 71.7645864,49.2203243 70.1345538,33.2419514 C69.2180022,24.2595717 63.7071721,20.0046472 59.2452801,18.0170892 C54.5465374,15.9235047 50.0897221,15.8994876 49.9022722,15.8994876 C49.7148224,15.8994876 45.2582024,15.9235047 40.5592644,18.0170892 C36.0975676,20.0046472 30.5867375,24.2595717 29.6701859,33.2419514 C28.0399581,49.220129 29.7129479,55.4288314 33.1534336,60.7533936 C34.2008095,62.3746427 35.6377297,63.8246481 37.0270064,65.2272053 C38.5863548,66.8013965 40.527437,68.7604464 40.4391794,69.8425809 C40.3985652,70.3432291 39.7963826,70.8790243 39.2986642,71.2404518 C37.8592056,72.2850961 34.7379705,73.8493291 31.1240937,75.6605667 C27.006055,77.7244716 21.9786893,80.2456769 17.7128386,82.8934111 C17.6107174,82.7932424 17.5072295,82.6952216 17.4060847,82.5938813 C8.70001582,73.8877954 3.90520505,62.3121593 3.90520505,50 M52.3795391,99.9435697 C52.7023043,99.9285346 53.0242884,99.9084228 53.3458821,99.8873346 C53.4081701,99.8830389 53.4706534,99.8803052 53.5329414,99.8758142 C65.5578488,99.0420513 76.7491902,93.9613696 85.3552858,85.3552572 C94.7990479,75.9114766 100,63.3554368 100,50 C100,36.6443679 94.7990479,24.0883281 85.3552858,14.6445475 C75.9113284,5.20096224 63.3555084,0 49.9999024,0 C36.6444916,0 24.0884763,5.20096224 14.6447142,14.6445475 C5.20095209,24.0883281 0,36.6443679 0,50 C0,63.3554368 5.20095209,75.9114766 14.6447142,85.3552572 C23.2484667,93.9590265 34.4357076,99.0393177 46.4571003,99.8752285 C46.5191931,99.8797194 46.5816764,99.8824531 46.6435739,99.8867488 C46.9667296,99.907837 47.2900806,99.9281441 47.6146031,99.9433744 C47.7792075,99.9509896 47.9447882,99.9550901 48.1097831,99.9613384 C48.3384329,99.9699299 48.5666921,99.9798882 48.7955371,99.9853555 C49.1966017,99.9949232 49.5978615,100 49.9999024,100 C50.4013574,100 50.8020315,99.9949232 51.2021197,99.9853555 C51.4305742,99.9798882 51.6582477,99.9699299 51.8861164,99.9615337 C52.0505255,99.9552853 52.2153252,99.9511848 52.3795391,99.9435697"/></g></g></svg>
